# xmcd
#
# Track frame offsets:
#	150
#	16235
#	28193
#	41402
#	58494
#	70515
#	86109
#	99528
#	113105
#	130451
#	145098
#	158601
#	176730
#	195301
#	208065
#	222905
#
# Disc length: 3207 seconds
#
# Revision: 1
# Processed by: cddbd v1.5.2PL0 Copyright (c) Steve Scherf et al.
# Submitted via: audiograbber 1.83.01
#
DISCID=e40c8510
DTITLE=Various Artist - Country Ballads CD 1 af 2
DYEAR=2006
DGENRE=Ballads
TTITLE0=Shania Twain - 1998 - You´re Still The One
TTITLE1=Kenny Rogers and The First Edition - 1971 - A Poem For My Little Lady
TTITLE2=Johnny Cash - 1988 - Peace In The Valley
TTITLE3=The Mavericks - 1992 - This Broken Heart
TTITLE4=Connie Francis - 1962 - I Fall To Pieces
TTITLE5=Billy Ray Cyrus - 1992 - She´s Not Crying Anymore
TTITLE6=Donna Fargo - 1972 - Funny Face
TTITLE7=Kris Kristofferson - 1987 - Love Is The Way
TTITLE8=Billie Jo Spears - 1986 - Blanket On The Ground
TTITLE9=Lee Greenwood and Barbara Mandrell - 1984 - To Me
TTITLE10=Tanya Tucker - 1975 - You´ve Got Me To Hold On To
TTITLE11=Vince Gill - 1989 - Never Knew Lonely
TTITLE12=Bobbie Cryner - 1996 - You´d Think He´d Know Me Better
TTITLE13=Don Williams - 1975 - You´re My Best Friend
TTITLE14=Lynn Andersson - 1986 - Odds And Ends
TTITLE15=Mark Chestnut - 1999 - I Don´t To Miss A Thing
EXTD=USM 2006 984 168 - 1
EXTT0=
EXTT1=
EXTT2=
EXTT3=
EXTT4=
EXTT5=
EXTT6=
EXTT7=
EXTT8=
EXTT9=
EXTT10=
EXTT11=
EXTT12=
EXTT13=
EXTT14=
EXTT15=
PLAYORDER=
